<?xml version="1.0" encoding="utf-8"?>
<!-- Generator: Adobe Illustrator 16.0.3, SVG Export Plug-In . SVG Version: 6.00 Build 0)  -->
<!DOCTYPE svg PUBLIC "-//W3C//DTD SVG 1.1//EN" "http://www.w3.org/Graphics/SVG/1.1/DTD/svg11.dtd">
<svg version="1.1" id="Capa_1" xmlns="http://www.w3.org/2000/svg" xmlns:xlink="http://www.w3.org/1999/xlink" x="0px" y="0px"
	 width="548.507px" height="145.254px" viewBox="0 0 548.507 145.254" enable-background="new 0 0 548.507 145.254"
	 xml:space="preserve">
<g>
	<path fill="#00B3E9" d="M38.241,24.878c-0.062-0.648-0.1-1.303-0.1-1.967c0-11.147,9.158-20.224,20.404-20.224
		c11.146,0,20.224,9.077,20.224,20.224c0,0.665-0.038,1.32-0.098,1.967h2.694c0.056-0.65,0.09-1.305,0.09-1.967
		C81.455,10.248,71.208,0,58.545,0c-12.569,0-23.09,10.155-23.09,22.911c0,0.663,0.035,1.318,0.091,1.967H38.241z"/>
	<path fill="#00B3E9" d="M75.947,24.878c0.072-0.648,0.117-1.303,0.117-1.967c0-9.661-7.859-17.521-17.519-17.521
		c-9.648,0-17.699,7.823-17.699,17.521c0,0.665,0.046,1.319,0.12,1.967h2.718c-0.09-0.647-0.152-1.301-0.152-1.967
		c0-8.175,6.74-14.834,15.013-14.834c8.174,0,14.833,6.659,14.833,14.834c0,0.668-0.058,1.321-0.143,1.967H75.947z"/>
	<path fill="#00B3E9" d="M61.24,16.172c0.743,0,1.348,0.605,1.348,1.348c0,0.744,0.603,1.348,1.347,1.348
		c0.745,0,1.348-0.604,1.348-1.348c0-2.229-1.814-4.043-4.043-4.043h-1.348v-1.348c0-0.744-0.603-1.347-1.347-1.347
		c-0.745,0-1.348,0.603-1.348,1.347v1.348H55.67c-2.23,0-4.043,1.814-4.043,4.043v2.695c0,2.23,1.813,4.043,4.043,4.043h1.527v0.62
		h2.695v-0.62h1.348c0.469,0,0.863,0.256,1.104,0.62h2.865c-0.344-1.882-1.989-3.315-3.969-3.315h-1.348v-5.391H61.24z
		 M57.197,21.563H55.67c-0.743,0-1.348-0.604-1.348-1.348V17.52c0-0.743,0.605-1.348,1.348-1.348h1.527V21.563z"/>
	<path fill="#00B3E9" d="M52.168,132.669c-1.063,0.037-1.921,0.948-1.908,2.027c0.012,1.076,0.905,1.976,1.963,1.979
		c1.108,0.003,2.018-0.965,1.97-2.096C54.147,133.508,53.218,132.632,52.168,132.669"/>
	<path fill="#00B3E9" d="M9.973,136.685c11.247,0.007,22.495,0.006,33.743,0.001c2.045-0.001,2.71-0.669,2.711-2.696
		c0.003-11.247,0.003-22.495-0.001-33.743c0-2.045-0.638-2.671-2.704-2.672c-5.581-0.004-11.162-0.002-16.743-0.002
		c-5.667,0-11.333-0.002-17,0.002c-1.965,0.001-2.662,0.671-2.663,2.605c-0.006,11.29-0.006,22.581,0,33.872
		C7.317,135.995,8.01,136.684,9.973,136.685 M11.442,101.661h30.953v30.888H11.442V101.661z"/>
	<path fill="#00B3E9" d="M46.427,71.447c0.002-11.161,0.002-22.321,0-33.481c0-2.215-0.581-2.782-2.844-2.783
		c-11.161-0.001-22.321-0.002-33.481,0.001c-2.204,0-2.788,0.599-2.788,2.851c-0.002,11.117-0.002,22.235,0,33.352
		c0,2.267,0.61,2.867,2.923,2.868c5.58,0.003,11.161,0.001,16.741,0.001c5.537,0,11.074,0.003,16.611-0.002
		C45.831,74.252,46.427,73.659,46.427,71.447 M42.376,70.171H11.438V39.24h30.938V70.171z"/>
	<path fill="#00B3E9" d="M72.423,74.253c11.245,0.005,22.491,0.006,33.737,0c2.049-0.001,2.655-0.626,2.657-2.713
		c0.006-5.623,0.002-11.246,0.002-16.869c0-5.622,0.005-11.245-0.003-16.868c-0.002-1.998-0.618-2.617-2.601-2.618
		c-11.289-0.005-22.578-0.005-33.866,0c-1.977,0.001-2.601,0.635-2.601,2.632c-0.004,11.245-0.004,22.491,0,33.736
		C69.748,73.629,70.362,74.253,72.423,74.253 M73.828,39.202h30.963v30.981H73.828V39.202z"/>
	<path fill="#00B3E9" d="M91.261,136.689c4.976,0,9.953,0.006,14.929-0.004c1.964-0.004,2.625-0.665,2.626-2.628
		c0.006-8.709,0.007-17.417-0.001-26.126c-0.001-1.889-0.674-2.579-2.543-2.58c-10.039-0.01-20.077-0.01-30.116,0
		c-1.814,0.002-2.457,0.676-2.458,2.499c-0.003,8.751-0.002,17.503,0,26.254c0,1.968,0.618,2.58,2.634,2.582
		C81.308,136.693,86.285,136.689,91.261,136.689 M77.64,109.479h27.159v23.1H77.64V109.479z"/>
	<path fill="#00B3E9" d="M52.664,117.149c2.442,0.01,4.884,0.003,7.327,0.003c2.442,0,4.884,0.006,7.326-0.002
		c1.812-0.006,2.497-0.673,2.509-2.465c0.015-2.27,0.013-4.541,0-6.812c-0.009-1.774-0.72-2.514-2.489-2.521
		c-4.884-0.017-9.769-0.018-14.653,0.001c-1.719,0.007-2.416,0.724-2.428,2.431c-0.016,2.313-0.016,4.627,0,6.941
		C50.269,116.46,50.952,117.142,52.664,117.149 M54.273,109.474h11.511v3.598H54.273V109.474z"/>
	<path fill="#00B3E9" d="M54.193,56.912c-0.008-1.539-1.008-2.462-2.328-2.178c-1.21,0.259-1.62,1.113-1.617,2.28
		c0.012,4.887-0.001,9.775,0.007,14.662c0.003,1.957,0.637,2.571,2.654,2.577c3.344,0.01,6.688,0.004,10.032,0.003
		c2.043-0.001,2.967-0.631,2.966-2.012c-0.002-1.358-0.941-1.979-2.994-1.98c-2.86,0-5.72,0-8.712,0v-1.519
		C54.2,64.801,54.213,60.856,54.193,56.912"/>
	<path fill="#00B3E9" d="M46.426,80.189c-0.073-1.251-0.864-2.108-1.966-2.132c-1.081-0.023-1.98,0.836-2.004,2.08
		c-0.048,2.485-0.018,4.972-0.02,7.459c0,0.678,0,1.356,0,2.205c-0.707,0-1.173,0-1.639,0c-3.901,0-7.803-0.009-11.704,0.006
		c-1.385,0.005-2.216,0.747-2.24,1.925c-0.025,1.171,0.815,1.999,2.175,2.006c5.059,0.022,10.118,0.024,15.176,0
		c1.53-0.007,2.212-0.756,2.219-2.359c0.016-3.645,0.005-7.289,0.005-10.933C46.428,80.361,46.431,80.274,46.426,80.189"/>
	<path fill="#00B3E9" d="M65.11,78.04c-3.821-0.009-7.642-0.003-11.463-0.002c-0.429,0-0.86-0.023-1.287,0.011
		c-1.306,0.104-2.09,0.857-2.1,1.987c-0.01,1.182,0.832,1.986,2.178,2.028c0.943,0.03,1.888,0.007,2.833,0.007
		c2.825,0,5.649,0,8.636,0c0,2.837,0,5.45,0,8.064c0,0.515-0.018,1.031,0.008,1.545c0.063,1.275,0.841,2.069,1.989,2.057
		c1.148-0.012,1.929-0.803,1.939-2.103c0.027-3.606,0.014-7.212,0.011-10.818C67.852,78.671,67.238,78.044,65.11,78.04"/>
	<path fill="#00B3E9" d="M60.416,136.682c2.314,0.025,4.628,0.025,6.941,0.001c1.76-0.018,2.465-0.753,2.47-2.54
		c0.01-3.556,0.009-7.113,0-10.669c-0.004-1.602-0.699-2.447-1.979-2.454c-1.329-0.007-1.959,0.758-1.964,2.427
		c-0.008,2.997-0.002,5.994-0.002,9.21c-1.915,0-3.662-0.015-5.408,0.004c-1.523,0.016-2.457,0.818-2.435,2.045
		C58.06,135.884,58.962,136.666,60.416,136.682"/>
	<path fill="#00B3E9" d="M58.151,89.827c1.131-0.045,1.944-0.946,1.92-2.009c-0.025-1.044-0.788-1.848-1.893-1.867
		c-2.017-0.036-4.036-0.025-6.054-0.004c-1.056,0.01-1.799,0.608-1.816,1.624c-0.067,4.077-0.066,8.157-0.007,12.234
		c0.016,1.093,0.818,1.669,1.895,1.726c1.056,0.056,1.863-0.691,1.984-1.788c0.042-0.382,0.019-0.772,0.019-1.158
		c0.002-2.866,0.001-5.732,0.001-8.746C55.601,89.838,56.878,89.876,58.151,89.827"/>
	<path fill="#00B3E9" d="M26.883,80.08c-0.058-1.165-0.859-1.994-1.917-2.016c-1.075-0.023-1.939,0.755-1.994,1.932
		c-0.063,1.326-0.063,2.66-0.007,3.986c0.053,1.253,0.79,1.907,2.088,1.947c0.9,0.028,1.801,0.006,2.702,0.006
		c2.915,0,5.831,0.016,8.747-0.009c1.269-0.01,2.112-0.82,2.13-1.939c0.018-1.081-0.85-1.922-2.088-1.991
		c-0.556-0.031-1.114-0.009-1.672-0.009c-2.606-0.001-5.212,0-7.984,0C26.888,81.183,26.91,80.629,26.883,80.08"/>
	<path fill="#00B3E9" d="M7.318,91.376c0.032,1.632,0.738,2.351,2.362,2.366c2.443,0.023,4.886,0.009,7.329,0.006
		c1.372-0.001,2.746,0.039,4.114-0.031c1.187-0.061,1.893-0.897,1.859-2.026c-0.033-1.07-0.743-1.793-1.879-1.876
		c-0.469-0.035-0.942-0.013-1.414-0.013c-2.732-0.001-5.465-0.001-8.345-0.001c0-0.68,0.026-1.226-0.005-1.769
		c-0.081-1.382-0.827-2.121-2.077-2.093c-1.172,0.025-1.89,0.767-1.939,2.094C7.282,89.146,7.296,90.263,7.318,91.376"/>
	<path fill="#00B3E9" d="M56.123,35.2c-1.285-0.044-2.573-0.043-3.858,0c-1.211,0.04-1.974,0.728-1.986,1.904
		c-0.039,3.944-0.052,7.889,0.001,11.832c0.02,1.458,1.428,2.288,2.756,1.726c0.91-0.386,1.174-1.154,1.17-2.091
		c-0.016-3.08-0.006-6.161-0.006-9.441c0.741,0,1.292,0.02,1.841-0.004c1.306-0.057,2.032-0.782,2.022-1.99
		C58.053,35.994,57.34,35.242,56.123,35.2"/>
	<path fill="#00B3E9" d="M63.804,60.591c1.321-0.078,2.072-0.8,2.085-1.97c0.012-1.151-0.771-1.95-2.056-1.998
		c-1.243-0.045-2.49-0.041-3.733-0.003c-1.198,0.037-2.006,0.685-2.039,1.886c-0.073,2.658-0.062,5.32-0.005,7.979
		c0.025,1.144,0.976,1.991,2.018,1.911c1.128-0.086,1.816-0.715,1.918-1.874c0.045-0.511,0.022-1.029,0.023-1.543
		c0.002-1.404,0.001-2.808,0.001-4.383C62.717,60.596,63.262,60.623,63.804,60.591"/>
	<path fill="#00B3E9" d="M15.138,83.816c0.086,1.366,0.884,2.166,2.077,2.115c1.137-0.049,1.865-0.853,1.897-2.157
		c0.028-1.115,0.019-2.232,0.004-3.347c-0.023-1.608-0.738-2.354-2.373-2.38c-2.316-0.035-4.634-0.026-6.952-0.003
		c-1.511,0.015-2.485,0.85-2.467,2.044c0.017,1.211,0.967,1.969,2.514,1.979c1.709,0.012,3.417,0.003,5.295,0.003
		C15.133,82.792,15.106,83.306,15.138,83.816"/>
	<path fill="#00B3E9" d="M60.059,124.91c1.191-0.026,1.954-0.84,1.945-1.94c-0.009-1.113-0.775-1.926-1.951-1.94
		c-2.611-0.031-5.223-0.03-7.834-0.001c-1.194,0.014-1.903,0.716-1.946,1.921c-0.048,1.325-0.052,2.655,0.002,3.98
		c0.048,1.177,0.884,1.93,1.986,1.912c1.096-0.017,1.864-0.788,1.931-1.979c0.033-0.588,0.005-1.179,0.005-1.942
		C56.299,124.92,58.179,124.951,60.059,124.91"/>
	<path fill="#00B3E9" d="M60.068,46.873c-1.219,0.08-2.068,0.953-2.03,2.046c0.038,1.084,0.824,1.847,2.028,1.882
		c1.283,0.036,2.568,0.022,3.851,0.004c1.168-0.015,1.886-0.647,1.957-1.786c0.088-1.403,0.106-2.823-0.004-4.223
		c-0.093-1.187-1.029-1.901-2.081-1.821c-1.042,0.08-1.788,0.91-1.85,2.095c-0.029,0.546-0.005,1.094-0.005,1.797
		C61.175,46.867,60.619,46.836,60.068,46.873"/>
	<path fill="#00B3E9" d="M66.094,101.496c1.124-0.078,1.808-0.93,1.748-1.988c-0.066-1.156-0.742-1.794-1.862-1.915
		c-0.634-0.068-1.281-0.012-1.922-0.013c-0.641-0.001-1.286-0.042-1.923,0.009c-1.103,0.088-1.839,0.871-1.868,1.909
		c-0.03,1.094,0.603,1.927,1.731,2.003C63.358,101.593,64.734,101.591,66.094,101.496"/>
	<path fill="#00B3E9" d="M63.92,39.124c1.11,0.007,1.963-0.82,1.986-1.925c0.023-1.099-0.813-1.98-1.904-2.008
		c-1.145-0.029-2.082,0.877-2.065,1.995C61.954,38.271,62.82,39.117,63.92,39.124"/>
	<path fill="#00B3E9" d="M35.888,105.348c-6.006-0.005-12.012-0.006-18.018,0c-2.098,0.002-2.736,0.654-2.741,2.794
		c-0.008,2.96-0.002,5.92-0.002,8.88c0,3.046-0.008,6.092,0.003,9.138c0.008,2.09,0.602,2.705,2.677,2.71
		c6.049,0.013,12.098,0.013,18.147,0c2.04-0.005,2.695-0.67,2.698-2.714c0.009-6.006,0.008-12.012,0.001-18.018
		C38.651,106.008,37.996,105.35,35.888,105.348 M34.57,124.793H19.21v-15.316h15.36V124.793z"/>
	<path fill="#00B3E9" d="M17.587,66.437c3.132,0.013,6.263,0.004,9.395,0.004c3.045,0,6.091,0.008,9.137-0.003
		c1.812-0.006,2.523-0.672,2.529-2.464c0.018-6.178,0.019-12.355,0-18.532c-0.006-1.769-0.752-2.479-2.537-2.482
		c-6.177-0.011-12.354-0.011-18.531,0c-1.721,0.004-2.438,0.696-2.444,2.422c-0.02,6.22-0.021,12.44,0,18.66
		C15.142,65.775,15.841,66.429,17.587,66.437 M19.213,47.055h15.352V62.39H19.213V47.055z"/>
	<path fill="#00B3E9" d="M98.467,42.958c-6.133-0.009-12.265-0.009-18.398,0c-1.822,0.003-2.501,0.675-2.504,2.471
		c-0.009,6.175-0.008,12.351-0.001,18.527c0.003,1.826,0.648,2.473,2.473,2.481c3.088,0.012,6.176,0.003,9.263,0.003
		c3.002,0,6.005,0.004,9.007-0.001c2.116-0.004,2.695-0.571,2.696-2.639c0.002-6.09,0.003-12.18-0.001-18.27
		C101.001,43.65,100.331,42.96,98.467,42.958 M96.977,62.413H81.589v-15.38h15.388V62.413z"/>
	<path fill="#00B3E9" d="M98.698,113.172c-2.353-0.04-4.708-0.034-7.062-0.001c-1.531,0.022-2.443,0.855-2.39,2.077
		c0.052,1.209,0.905,1.892,2.413,1.901c1.748,0.011,3.496,0.002,5.404,0.002c0,0.8-0.04,1.4,0.008,1.992
		c0.097,1.18,0.901,1.906,2.016,1.878c1.126-0.029,1.864-0.76,1.906-1.978c0.04-1.155,0.018-2.311,0.009-3.467
		C100.988,113.906,100.351,113.201,98.698,113.172"/>
	<path fill="#00B3E9" d="M90.752,124.885c-1.745-0.009-3.489-0.002-5.38-0.002c0-0.775,0.019-1.33-0.003-1.883
		c-0.049-1.217-0.767-1.959-1.888-1.98c-1.186-0.023-1.969,0.734-2.005,2.001c-0.032,1.113-0.011,2.227-0.007,3.34
		c0.008,1.83,0.623,2.483,2.456,2.506c2.269,0.028,4.539,0.024,6.808,0.001c1.626-0.017,2.446-0.712,2.451-1.993
		C93.188,125.589,92.349,124.893,90.752,124.885"/>
	<path fill="#00B3E9" d="M99.025,124.887c-1.087,0.003-1.941,0.855-1.959,1.955c-0.017,1.097,0.816,1.964,1.914,1.992
		c1.144,0.029,2.05-0.873,2.021-2.012C100.973,125.723,100.117,124.884,99.025,124.887"/>
	<path fill="#00B3E9" d="M83.469,117.148c1.098-0.022,1.903-0.863,1.903-1.99c-0.001-1.12-0.817-1.957-1.919-1.967
		c-1.091-0.009-1.958,0.831-1.982,1.923C81.445,116.271,82.33,117.171,83.469,117.148"/>
	<path fill="#00B3E9" d="M116.24,112.744c0-2.237,0-4.474,0-6.787h-4.081c0,0.935,0,1.747,0,2.558
		c-0.002,8.577-0.001,17.154-0.007,25.732c-0.004,4.144-2.665,6.8-6.814,6.8c-31.498,0.002-62.996,0.002-94.493-0.001
		c-4.142,0-6.759-2.652-6.759-6.847c-0.003-31.902-0.004-63.804-0.002-95.705c0.001-4.166,2.476-6.652,6.613-6.652
		c31.572-0.002,63.144-0.001,94.717,0c4.37,0,6.744,2.451,6.745,6.964c0.001,10.835,0,21.669,0,32.504v2.443h3.943
		c0.065-0.465,0.122-0.682,0.122-0.9c0.007-11.963,0.015-23.926,0.001-35.889c-0.001-0.583-0.129-1.182-0.295-1.744
		c-1.528-5.194-5.406-7.946-11.238-7.948c-22.19-0.007-44.38-0.003-66.57-0.003c-9.01,0-18.02-0.039-27.03,0.009
		C4.771,27.313,0.008,31.7,0.007,37.418c-0.01,32.654-0.01,65.308-0.001,97.962c0.002,5.219,4.614,9.796,9.798,9.795
		c32.093-0.002,64.187-0.082,96.279,0.079c4.891,0.024,10.416-4.971,10.224-10.436C116.047,127.468,116.241,120.103,116.24,112.744"
		/>
	<path fill="#00B3E9" d="M30.866,20.739c-5.326,0-10.504-0.204-15.654,0.088c-2.513,0.142-4.853,1.404-6.5,3.85h22.154V20.739z"/>
	<path fill="#00B3E9" d="M101.554,20.857c-5.15-0.292-10.328-0.088-15.654-0.088v3.938h22.154
		C106.407,22.262,104.066,21,101.554,20.857"/>
	<path fill="#00B3E9" d="M84.097,83.158c-3.553-0.016-6.43,2.843-6.501,6.36c-0.069,3.411,2.693,6.591,6.488,6.587
		c3.566-0.004,6.459-2.869,6.475-6.444C90.575,85.948,87.533,83.13,84.097,83.158 M84.088,92.872
		c-1.812,0.008-3.249-1.428-3.247-3.247c0.001-1.804,1.47-3.273,3.254-3.255c1.789,0.019,3.263,1.513,3.242,3.288
		C87.317,91.429,85.866,92.864,84.088,92.872"/>
	<path fill="#00B3E9" d="M119.369,77.755c-5.954-0.004-11.909-0.001-17.863-0.001c-5.881,0-11.761,0.04-17.641-0.011
		c-6.048-0.052-11.745,4.566-11.927,11.786c-0.162,6.38,5.36,11.945,11.763,11.967c11.984,0.04,23.967,0.02,35.951,0
		c2.912-0.005,4.162-1.303,4.17-4.225c0.014-4.987,0.007-9.974,0.006-14.961C123.827,78.893,122.718,77.757,119.369,77.755
		 M120.637,96.947c0,0.361-0.052,0.722-0.09,1.211c-0.557,0.057-1.052,0.15-1.548,0.15c-11.622,0.009-23.243,0.025-34.865,0
		c-4.703-0.011-8.281-3.183-9.012-7.872c-0.589-3.782,2.31-7.882,6.507-9.168c0.553-0.169,1.142-0.309,1.715-0.31
		c11.994-0.018,23.988-0.016,35.982-0.011c0.357,0,0.714,0.058,1.315,0.111C120.641,86.524,120.642,91.735,120.637,96.947"/>
	<path fill="#616160" d="M158.799,102.06c2.796,0,4.845-0.543,6.147-1.627c1.302-1.085,1.953-2.447,1.953-4.086
		c0-1.494-0.507-2.687-1.519-3.58c-1.012-0.891-2.556-1.65-4.628-2.277l-4.629-1.447c-1.832-0.578-3.495-1.229-4.989-1.953
		c-1.495-0.722-2.773-1.578-3.833-2.566c-1.061-0.988-1.88-2.145-2.459-3.472c-0.578-1.326-0.868-2.904-0.868-4.736
		c0-3.906,1.47-7.003,4.412-9.294c2.94-2.288,6.966-3.434,12.077-3.434c2.024,0,3.892,0.157,5.604,0.47
		c1.711,0.314,3.193,0.748,4.447,1.301c1.253,0.555,2.23,1.242,2.93,2.061c0.698,0.821,1.048,1.736,1.048,2.749
		c0,0.965-0.23,1.796-0.687,2.494c-0.459,0.699-1.025,1.266-1.7,1.7c-1.156-0.82-2.688-1.53-4.591-2.133
		c-1.906-0.603-3.991-0.905-6.256-0.905c-2.507,0-4.411,0.447-5.713,1.338c-1.302,0.893-1.953,2.11-1.953,3.653
		c0,1.253,0.446,2.218,1.339,2.892c0.891,0.675,2.301,1.327,4.23,1.952l4.122,1.302c4.195,1.254,7.448,2.965,9.763,5.135
		c2.314,2.169,3.471,5.111,3.471,8.823c0,1.977-0.387,3.784-1.157,5.423c-0.772,1.64-1.893,3.049-3.363,4.231
		c-1.471,1.182-3.303,2.097-5.496,2.747c-2.194,0.651-4.689,0.977-7.485,0.977c-2.218,0-4.255-0.193-6.11-0.579
		c-1.857-0.387-3.46-0.904-4.81-1.554c-1.35-0.651-2.399-1.422-3.145-2.315c-0.748-0.892-1.121-1.867-1.121-2.928
		c0-1.109,0.325-2.061,0.976-2.857c0.651-0.795,1.41-1.386,2.278-1.772c1.205,1.062,2.796,2.037,4.773,2.929
		C153.833,101.615,156.147,102.06,158.799,102.06"/>
	<path fill="#616160" d="M234.587,108.568c-0.386,0.095-0.952,0.216-1.699,0.362c-0.748,0.144-1.555,0.216-2.423,0.216
		c-1.735,0-3.001-0.314-3.796-0.94c-0.796-0.625-1.194-1.735-1.194-3.326V86.077c0-1.927-0.531-3.326-1.591-4.194
		c-1.061-0.867-2.459-1.302-4.194-1.302c-1.157,0-2.278,0.217-3.363,0.651s-2.037,1.013-2.856,1.736
		c0.144,0.676,0.217,1.35,0.217,2.025v23.575c-0.387,0.095-0.953,0.216-1.7,0.362c-0.748,0.144-1.554,0.216-2.422,0.216
		c-1.736,0-3.001-0.314-3.797-0.94c-0.795-0.625-1.193-1.735-1.193-3.326V86.077c0-1.927-0.555-3.326-1.663-4.194
		c-1.11-0.867-2.531-1.302-4.267-1.302c-1.206,0-2.314,0.194-3.327,0.579c-1.012,0.386-1.856,0.771-2.531,1.157v26.251
		c-0.433,0.095-1.012,0.216-1.736,0.362c-0.722,0.144-1.542,0.216-2.458,0.216c-1.688,0-2.941-0.314-3.761-0.94
		c-0.82-0.625-1.229-1.735-1.229-3.326V81.667c0-1.109,0.241-2.036,0.724-2.784c0.481-0.747,1.229-1.458,2.241-2.133
		c1.447-0.965,3.278-1.771,5.496-2.423c2.217-0.651,4.507-0.977,6.87-0.977c4.387,0,7.955,1.182,10.703,3.544
		c1.398-1.012,3.002-1.855,4.809-2.531c1.808-0.675,3.941-1.013,6.4-1.013c1.881,0,3.663,0.23,5.352,0.688
		c1.687,0.458,3.145,1.193,4.375,2.205c1.229,1.013,2.206,2.303,2.928,3.869c0.724,1.567,1.085,3.435,1.085,5.604V108.568z"/>
	<path fill="#616160" d="M257.004,73.35c4.724,0,8.497,1.013,11.317,3.038c2.82,2.025,4.231,5.159,4.231,9.401v16.705
		c0,1.157-0.289,2.074-0.868,2.749c-0.579,0.675-1.302,1.276-2.17,1.807c-1.35,0.82-3.062,1.471-5.134,1.953
		c-2.074,0.481-4.436,0.723-7.087,0.723c-4.822,0-8.618-0.929-11.39-2.784c-2.773-1.855-4.158-4.64-4.158-8.353
		c0-3.229,1.024-5.7,3.073-7.412c2.049-1.711,5.027-2.76,8.932-3.146l9.907-1.012v-1.303c0-1.831-0.663-3.181-1.989-4.049
		c-1.327-0.868-3.194-1.302-5.604-1.302c-1.881,0-3.713,0.23-5.497,0.688c-1.784,0.458-3.374,1.024-4.772,1.699
		c-0.531-0.386-0.977-0.904-1.338-1.555c-0.362-0.651-0.542-1.362-0.542-2.133c0-0.964,0.228-1.747,0.686-2.35
		s1.194-1.146,2.206-1.628c1.398-0.578,2.989-1.012,4.773-1.302C253.363,73.494,255.171,73.35,257.004,73.35 M257.293,102.782
		c1.398,0,2.676-0.132,3.833-0.397c1.157-0.265,2-0.59,2.531-0.977v-8.027l-7.015,0.651c-1.929,0.193-3.399,0.615-4.411,1.266
		c-1.013,0.65-1.519,1.675-1.519,3.073c0,1.399,0.518,2.483,1.555,3.254C253.303,102.397,254.979,102.782,257.293,102.782"/>
	<path fill="#616160" d="M290.703,108.568c-0.435,0.095-1.013,0.216-1.736,0.362c-0.723,0.144-1.543,0.216-2.459,0.216
		c-1.688,0-2.941-0.314-3.76-0.94c-0.82-0.625-1.229-1.735-1.229-3.326V81.955c0-1.253,0.289-2.314,0.867-3.181
		c0.579-0.869,1.422-1.639,2.532-2.315c1.494-0.915,3.338-1.663,5.531-2.242c2.193-0.578,4.567-0.868,7.123-0.868
		c4.579,0,6.87,1.423,6.87,4.267c0,0.676-0.108,1.315-0.326,1.916c-0.216,0.604-0.445,1.098-0.686,1.484
		c-1.11-0.241-2.484-0.362-4.122-0.362c-1.688,0-3.28,0.193-4.773,0.578c-1.494,0.387-2.772,0.868-3.832,1.447V108.568z"/>
	<path fill="#616160" d="M320.821,101.336c0.94,0.676,2.254,1.012,3.94,1.012c0.821,0,1.651-0.095,2.496-0.288
		c0.842-0.193,1.603-0.434,2.277-0.724c0.386,0.387,0.712,0.857,0.978,1.41c0.265,0.555,0.397,1.194,0.397,1.916
		c0,1.447-0.652,2.641-1.952,3.58c-1.303,0.94-3.4,1.41-6.292,1.41c-3.809,0-6.811-0.856-9.004-2.567s-3.29-4.543-3.29-8.497V65.395
		c0.385-0.096,0.951-0.217,1.699-0.361c0.747-0.145,1.555-0.217,2.423-0.217c1.688,0,2.929,0.314,3.725,0.939
		c0.796,0.628,1.192,1.736,1.192,3.327v6.003h10.631c0.239,0.386,0.458,0.892,0.652,1.518c0.19,0.627,0.288,1.301,0.288,2.025
		c0,1.254-0.288,2.169-0.868,2.748c-0.579,0.578-1.349,0.868-2.314,0.868h-8.389V98.01
		C319.411,99.553,319.881,100.661,320.821,101.336"/>
	<path fill="#616160" d="M373.432,75.52c0.48-0.241,1.144-0.471,1.989-0.687c0.843-0.217,1.722-0.326,2.639-0.326
		c1.542,0,2.807,0.23,3.796,0.687c0.989,0.459,1.603,1.146,1.845,2.062c0.724,2.313,1.386,4.46,1.989,6.437
		c0.602,1.977,1.193,3.893,1.771,5.749c0.579,1.856,1.133,3.688,1.662,5.496c0.531,1.808,1.062,3.677,1.593,5.605h0.289
		c0.577-3.085,1.108-6.075,1.591-8.968c0.481-2.892,0.963-5.761,1.445-8.606c0.481-2.844,0.929-5.713,1.338-8.605
		c0.409-2.893,0.832-5.881,1.266-8.967c1.254-0.675,2.627-1.013,4.122-1.013c1.35,0,2.496,0.302,3.436,0.904
		c0.94,0.603,1.409,1.58,1.409,2.929c0,0.965-0.121,2.411-0.361,4.339c-0.24,1.929-0.566,4.098-0.976,6.508
		c-0.411,2.412-0.892,4.979-1.447,7.702c-0.554,2.724-1.133,5.376-1.734,7.955c-0.604,2.58-1.205,4.978-1.809,7.195
		c-0.604,2.219-1.192,4.026-1.771,5.424c-0.579,0.483-1.447,0.892-2.604,1.23c-1.157,0.336-2.387,0.506-3.688,0.506
		c-1.688,0-3.121-0.254-4.302-0.76c-1.183-0.506-1.893-1.167-2.134-1.989c-0.434-1.108-0.904-2.423-1.411-3.94
		c-0.506-1.519-1.036-3.17-1.591-4.955c-0.555-1.782-1.12-3.651-1.699-5.604c-0.577-1.952-1.133-3.941-1.662-5.966
		c-0.531,1.978-1.074,3.99-1.628,6.039c-0.555,2.049-1.097,4.025-1.628,5.929c-0.529,1.906-1.06,3.688-1.591,5.352
		c-0.529,1.663-1.012,3.073-1.444,4.23c-0.532,0.434-1.338,0.82-2.424,1.158c-1.085,0.336-2.278,0.506-3.579,0.506
		c-1.64,0-3.087-0.254-4.339-0.76c-1.256-0.506-2.073-1.167-2.459-1.989c-0.434-0.963-0.917-2.336-1.446-4.121
		c-0.531-1.784-1.086-3.821-1.663-6.111c-0.578-2.29-1.158-4.761-1.736-7.412c-0.579-2.652-1.134-5.291-1.663-7.919
		c-0.532-2.627-1.024-5.182-1.482-7.666c-0.458-2.482-0.808-4.736-1.049-6.761c0.529-0.482,1.23-0.928,2.098-1.338
		c0.868-0.409,1.854-0.615,2.965-0.615c1.349,0,2.446,0.314,3.29,0.94c0.843,0.627,1.385,1.64,1.627,3.038
		c0.724,4.002,1.349,7.533,1.88,10.594c0.53,3.062,1.025,5.846,1.483,8.352c0.458,2.508,0.892,4.822,1.301,6.943
		c0.41,2.122,0.832,4.219,1.266,6.292h0.362c0.53-2.073,1.049-4.002,1.555-5.786c0.506-1.783,1.023-3.616,1.556-5.496
		c0.528-1.88,1.095-3.916,1.698-6.111C371.973,80.956,372.659,78.413,373.432,75.52"/>
	<path fill="#616160" d="M426.077,73.35c4.726,0,8.498,1.013,11.319,3.038c2.82,2.025,4.229,5.159,4.229,9.401v16.705
		c0,1.157-0.29,2.074-0.867,2.749c-0.578,0.675-1.303,1.276-2.169,1.807c-1.352,0.82-3.063,1.471-5.136,1.953
		c-2.073,0.481-4.437,0.723-7.087,0.723c-4.821,0-8.619-0.929-11.39-2.784c-2.773-1.855-4.158-4.64-4.158-8.353
		c0-3.229,1.023-5.7,3.074-7.412c2.048-1.711,5.025-2.76,8.93-3.146l9.907-1.012v-1.303c0-1.831-0.663-3.181-1.987-4.049
		c-1.328-0.868-3.196-1.302-5.604-1.302c-1.881,0-3.713,0.23-5.496,0.688c-1.784,0.458-3.375,1.024-4.773,1.699
		c-0.531-0.386-0.976-0.904-1.338-1.555c-0.362-0.651-0.543-1.362-0.543-2.133c0-0.964,0.229-1.747,0.688-2.35
		c0.459-0.603,1.193-1.146,2.204-1.628c1.398-0.578,2.99-1.012,4.774-1.302C422.438,73.494,424.245,73.35,426.077,73.35
		 M426.367,102.782c1.398,0,2.676-0.132,3.832-0.397c1.158-0.265,2.001-0.59,2.531-0.977v-8.027l-7.014,0.651
		c-1.93,0.193-3.399,0.615-4.411,1.266c-1.014,0.65-1.52,1.675-1.52,3.073c0,1.399,0.519,2.483,1.556,3.254
		C422.378,102.397,424.053,102.782,426.367,102.782"/>
	<path fill="#616160" d="M458.51,108.93c-0.748,0.144-1.554,0.216-2.423,0.216c-1.734,0-3-0.314-3.796-0.94
		c-0.796-0.625-1.192-1.735-1.192-3.326V61.634c0.386-0.144,0.95-0.276,1.698-0.397c0.748-0.12,1.556-0.181,2.423-0.181
		c1.736,0,3.003,0.314,3.798,0.94c0.796,0.627,1.191,1.736,1.191,3.327v43.245C459.823,108.663,459.258,108.784,458.51,108.93"/>
	<path fill="#616160" d="M477.817,108.93c-0.748,0.144-1.554,0.216-2.423,0.216c-1.735,0-3-0.314-3.796-0.94
		c-0.796-0.625-1.193-1.735-1.193-3.326V61.634c0.386-0.144,0.951-0.276,1.699-0.397c0.748-0.12,1.555-0.181,2.423-0.181
		c1.736,0,3.002,0.314,3.797,0.94c0.796,0.627,1.192,1.736,1.192,3.327v43.245C479.13,108.663,478.565,108.784,477.817,108.93"/>
	<path fill="#616160" d="M496.582,95.623c0.675,2.459,1.93,4.243,3.76,5.352c1.832,1.109,4.099,1.663,6.8,1.663
		c2.024,0,3.893-0.301,5.604-0.904c1.711-0.602,3.096-1.241,4.158-1.917c0.674,0.387,1.229,0.917,1.663,1.592
		c0.434,0.675,0.649,1.398,0.649,2.169c0,0.965-0.323,1.821-0.976,2.567c-0.651,0.748-1.543,1.387-2.676,1.917
		c-1.133,0.531-2.47,0.94-4.012,1.23c-1.544,0.288-3.207,0.433-4.99,0.433c-2.848,0-5.438-0.386-7.774-1.157
		c-2.339-0.771-4.34-1.94-6.003-3.508c-1.663-1.566-2.965-3.507-3.906-5.821c-0.939-2.314-1.408-5.014-1.408-8.099
		c0-2.99,0.458-5.592,1.373-7.811c0.915-2.217,2.157-4.073,3.724-5.568c1.566-1.494,3.387-2.603,5.461-3.326
		c2.073-0.724,4.266-1.085,6.581-1.085c2.361,0,4.531,0.374,6.509,1.121c1.977,0.748,3.662,1.784,5.062,3.109
		c1.397,1.327,2.494,2.917,3.291,4.773c0.795,1.856,1.192,3.869,1.192,6.038c0,1.351-0.35,2.363-1.049,3.038
		c-0.699,0.676-1.675,1.109-2.929,1.302L496.582,95.623z M504.61,80.22c-2.364,0-4.34,0.784-5.931,2.35
		c-1.592,1.567-2.483,3.797-2.676,6.69l16.055-2.387c-0.193-1.783-0.893-3.338-2.098-4.665
		C508.755,80.883,506.972,80.22,504.61,80.22"/>
	<path fill="#616160" d="M538.346,101.336c0.939,0.676,2.253,1.012,3.939,1.012c0.82,0,1.652-0.095,2.497-0.288
		c0.842-0.193,1.602-0.434,2.277-0.724c0.385,0.387,0.71,0.857,0.976,1.41c0.266,0.555,0.397,1.194,0.397,1.916
		c0,1.447-0.65,2.641-1.951,3.58c-1.302,0.94-3.399,1.41-6.293,1.41c-3.809,0-6.81-0.856-9.003-2.567s-3.291-4.543-3.291-8.497
		V65.395c0.387-0.096,0.953-0.217,1.701-0.361c0.747-0.145,1.554-0.217,2.421-0.217c1.688,0,2.931,0.314,3.726,0.939
		c0.795,0.628,1.192,1.736,1.192,3.327v6.003h10.631c0.24,0.386,0.458,0.892,0.651,1.518c0.191,0.627,0.29,1.301,0.29,2.025
		c0,1.254-0.29,2.169-0.869,2.748c-0.578,0.578-1.349,0.868-2.313,0.868h-8.39V98.01
		C536.935,99.553,537.405,100.661,538.346,101.336"/>
</g>
</svg>
